<?xml version="1.0" encoding="UTF-8" standalone="no"?>
<!-- Created with Inkscape (http://www.inkscape.org/) -->

<svg
   xmlns:dc="http://purl.org/dc/elements/1.1/"
   xmlns:cc="http://creativecommons.org/ns#"
   xmlns:rdf="http://www.w3.org/1999/02/22-rdf-syntax-ns#"
   xmlns:svg="http://www.w3.org/2000/svg"
   xmlns="http://www.w3.org/2000/svg"
   xmlns:sodipodi="http://sodipodi.sourceforge.net/DTD/sodipodi-0.dtd"
   xmlns:inkscape="http://www.inkscape.org/namespaces/inkscape"
   id="svg2"
   version="1.1"
   inkscape:version="0.91 r13725"
   xml:space="preserve"
   width="148.925"
   height="53.724998"
   viewBox="0 0 148.925 53.724998"
   sodipodi:docname="fh-logo.svg"><metadata
     id="metadata8"><rdf:RDF><cc:Work
         rdf:about=""><dc:format>image/svg+xml</dc:format><dc:type
           rdf:resource="http://purl.org/dc/dcmitype/StillImage" /><dc:title></dc:title></cc:Work></rdf:RDF></metadata><defs
     id="defs6" /><sodipodi:namedview
     pagecolor="#ffffff"
     bordercolor="#666666"
     borderopacity="1"
     objecttolerance="10"
     gridtolerance="10"
     guidetolerance="10"
     inkscape:pageopacity="0"
     inkscape:pageshadow="2"
     inkscape:window-width="640"
     inkscape:window-height="480"
     id="namedview4"
     showgrid="false"
     inkscape:zoom="2.4643276"
     inkscape:cx="74.462502"
     inkscape:cy="26.862499"
     inkscape:window-x="0"
     inkscape:window-y="27"
     inkscape:window-maximized="0"
     inkscape:current-layer="g12" /><g
     id="g10"
     inkscape:groupmode="layer"
     inkscape:label="ink_ext_XXXXXX"
     transform="matrix(1.25,0,0,-1.25,0,53.725)"><g
       id="g12"
       transform="scale(0.1,0.1)"><path
         d="m 1173.67,355.648 c -0.23,7.141 -2.07,12.54 -5.51,16.204 -3.39,3.48 -7.74,5.218 -13.05,5.218 -5.31,0 -9.66,-1.738 -13.05,-5.218 -3.33,-3.664 -5.17,-9.063 -5.5,-16.204 l 37.11,0 z m -37.11,-15.019 c 0,-7.336 2.03,-12.91 6.1,-16.727 3.78,-3.875 8.75,-5.812 14.91,-5.812 7.18,0 13.59,2.969 19.24,8.89 l 12.79,-11.332 c -8.99,-9.886 -19.55,-14.769 -31.69,-14.648 -4.64,0 -9.16,0.699 -13.56,2.102 -2.21,0.761 -4.35,1.777 -6.44,3.07 -2.21,1.109 -4.27,2.48 -6.19,4.117 -3.73,3.395 -6.75,8.117 -9.08,14.203 -2.53,5.84 -3.8,13.438 -3.8,22.789 0,8.996 1.1,16.481 3.3,22.442 2.21,6.07 5.03,10.867 8.47,14.371 3.51,3.566 7.44,6.136 11.79,7.719 4.29,1.566 8.53,2.359 12.71,2.359 10.06,-0.125 18.56,-3.543 25.5,-10.262 7.07,-6.847 10.66,-16.269 10.78,-28.262 l 0,-15.019 -54.83,0 z m -59.71,89.199 17.72,0 0,-104.398 c 0,-4.153 2.21,-6.231 6.64,-6.231 l 6.13,0 0,-17.097 -7.9,0 c -6.46,0 -11.78,1.66 -15.97,4.961 -4.41,3.367 -6.62,9.027 -6.62,16.964 l 0,105.801 z m -96.389,-36.765 17.723,0 0,-54.274 c 0,-6.148 1.671,-10.945 5.016,-14.398 3.29,-3.461 7.48,-5.192 12.59,-5.192 5.1,0 9.27,1.731 12.51,5.192 3.28,3.453 4.93,8.25 4.93,14.398 l 0,54.274 17.72,0 0,-90.961 -17.72,0 0,9.73 -0.34,0 C 1027.05,304.609 1019.43,301 1010.03,301 c -7.3,0.109 -13.909,2.848 -19.796,8.219 -6.406,5.25 -9.668,13.004 -9.773,23.269 l 0,60.575 z m -96.391,36.765 17.715,0 0,-46.43 0.344,0 c 5.84,7.184 13.476,10.774 22.949,10.774 7.305,0 13.992,-2.664 20.051,-7.973 6.004,-5.371 9.141,-13.261 9.434,-23.648 l 0,-60.449 -17.727,0 0,54.207 c 0,6.382 -1.648,11.23 -4.922,14.57 -3.242,3.391 -7.402,5.082 -12.512,5.082 -5.117,0 -9.304,-1.691 -12.593,-5.082 -3.352,-3.34 -5.024,-8.188 -5.024,-14.57 l 0,-54.207 -17.715,0 0,127.726 z M 869.395,316.68 c -3.86,-4.532 -8.387,-8.219 -13.594,-11.071 -5.215,-2.957 -11.238,-4.5 -18.086,-4.609 -10.402,0 -19.531,3.648 -27.395,10.949 -8.152,7.309 -12.332,19.141 -12.554,35.5 0.222,16.539 4.414,28.524 12.554,35.942 7.871,7.308 17.004,10.902 27.414,10.781 6.844,-0.125 12.864,-1.574 18.079,-4.371 5.195,-2.852 9.722,-6.672 13.582,-11.449 l -13.086,-11.981 c -4.473,6.156 -10.442,9.359 -17.911,9.59 -15.046,0.238 -22.683,-9.273 -22.918,-28.512 0.235,-19.121 7.872,-28.539 22.918,-28.25 7.469,0.121 13.438,3.289 17.911,9.512 L 869.395,316.68 Z M 720.93,329.859 c 7.207,-7.847 16.492,-11.769 27.871,-11.769 5.094,0 9.265,1.031 12.5,3.082 3.23,2.035 4.844,4.906 4.844,8.59 0,3.281 -0.969,5.558 -2.891,6.847 -1.984,1.352 -4.621,2.082 -7.902,2.192 l -15.633,1.41 c -7.414,0.695 -13.449,3.269 -18.086,7.719 -4.77,4.332 -7.192,10.383 -7.317,18.16 0.125,9.359 3.313,16.383 9.602,21.058 6.109,4.684 13.863,7.024 23.262,7.024 4.082,0 7.73,-0.262 10.957,-0.781 3.218,-0.594 6.258,-1.399 9.082,-2.45 5.426,-2.269 10.301,-5.332 14.597,-9.183 l -10.957,-13.199 c -3.398,2.539 -6.992,4.64 -10.793,6.3 -3.738,1.469 -8.035,2.211 -12.91,2.211 -5.547,0 -9.422,-1.019 -11.636,-3.07 -2.317,-2.051 -3.477,-4.687 -3.477,-7.91 -0.117,-2.051 0.762,-3.84 2.625,-5.36 1.699,-1.691 4.695,-2.781 9.016,-3.25 l 14.609,-1.14 c 9.168,-0.699 15.801,-3.57 19.883,-8.61 3.789,-4.921 5.679,-11.16 5.679,-18.71 -0.117,-8.848 -3.589,-15.668 -10.437,-20.469 -6.785,-4.922 -15.48,-7.442 -26.055,-7.551 -14.375,0 -27.304,5.402 -38.789,16.223 l 12.356,12.636 z m -99.035,99.969 17.714,0 0,-46.43 0.34,0 c 5.844,7.184 13.489,10.774 22.949,10.774 7.297,0 13.997,-2.664 20.051,-7.973 5.996,-5.371 9.153,-13.261 9.434,-23.648 l 0,-60.449 -17.727,0 0,54.207 c 0,6.382 -1.636,11.23 -4.929,14.57 -3.235,3.391 -7.391,5.082 -12.508,5.082 -5.102,0 -9.297,-1.691 -12.59,-5.082 -3.352,-3.34 -5.02,-8.188 -5.02,-14.57 l 0,-54.207 -17.714,0 0,127.726 z M 607.207,316.68 c -3.848,-4.532 -8.379,-8.219 -13.59,-11.071 -5.211,-2.957 -11.238,-4.5 -18.086,-4.609 -10.398,0 -19.531,3.648 -27.39,10.949 -8.141,7.309 -12.328,19.141 -12.551,35.5 0.223,16.539 4.41,28.524 12.551,35.942 7.871,7.308 17,10.902 27.41,10.781 6.851,-0.125 12.867,-1.574 18.078,-4.371 5.199,-2.852 9.73,-6.672 13.578,-11.449 l -13.074,-11.981 c -4.477,6.156 -10.442,9.359 -17.91,9.59 -15.051,0.238 -22.692,-9.273 -22.922,-28.512 0.23,-19.121 7.871,-28.539 22.922,-28.25 7.468,0.121 13.433,3.289 17.91,9.512 l 13.074,-12.031 z m -104.144,30.769 c 0,6.512 -0.286,11.274 -0.84,14.262 -0.575,2.867 -1.735,5.398 -3.485,7.57 -1.297,2.047 -3.218,3.657 -5.758,4.84 -2.429,1.231 -5.25,1.84 -8.468,1.84 -3.004,0 -5.762,-0.609 -8.301,-1.84 -2.441,-1.183 -4.41,-2.793 -5.941,-4.84 -1.52,-2.172 -2.618,-4.703 -3.301,-7.57 -0.68,-2.988 -1.016,-7.691 -1.016,-14.078 0,-6.344 0.336,-10.973 1.016,-13.91 0.683,-2.993 1.781,-5.633 3.301,-7.91 1.531,-1.774 3.5,-3.325 5.941,-4.676 2.539,-1.289 5.297,-1.938 8.301,-1.938 3.218,0 6.039,0.649 8.468,1.938 2.54,1.351 4.461,2.902 5.758,4.676 1.75,2.277 2.91,4.917 3.485,7.91 0.554,2.937 0.84,7.507 0.84,13.726 m -54.833,0.184 c 0,9.597 0.77,16.976 2.29,22.129 1.582,5.039 4.011,9.277 7.289,12.738 2.429,3.02 5.82,5.719 10.171,8.102 4.29,2.269 9.797,3.457 16.524,3.57 6.945,-0.125 12.574,-1.313 16.867,-3.59 4.238,-2.402 7.512,-5.121 9.828,-8.148 3.504,-3.454 5.992,-7.692 7.461,-12.711 1.406,-5.153 2.121,-12.512 2.121,-22.09 0,-9.59 -0.715,-16.891 -2.121,-21.926 -1.469,-5.019 -3.957,-9.379 -7.461,-13.055 -1.133,-1.343 -2.508,-2.664 -4.148,-3.941 -1.469,-1.461 -3.36,-2.719 -5.68,-3.77 -4.293,-2.507 -9.91,-3.832 -16.859,-3.941 -6.735,0.109 -12.242,1.434 -16.532,3.941 -4.351,2.282 -7.742,4.848 -10.171,7.719 -3.278,3.668 -5.707,8.028 -7.289,13.047 -1.52,5.035 -2.29,12.336 -2.29,21.926 m -92.113,82.195 17.723,0 0,-46.43 0.34,0 c 5.84,7.184 13.492,10.774 22.949,10.774 7.301,0 13.988,-2.664 20.051,-7.973 6,-5.371 9.148,-13.261 9.429,-23.648 l 0,-60.449 -17.718,0 0,54.207 c 0,6.382 -1.641,11.23 -4.93,14.57 -3.242,3.391 -7.402,5.082 -12.512,5.082 -5.101,0 -9.301,-1.691 -12.586,-5.082 -3.355,-3.34 -5.023,-8.188 -5.023,-14.57 l 0,-54.207 -17.723,0 0,127.726 z m -96.387,0 17.719,0 0,-46.43 0.34,0 c 5.84,7.184 13.488,10.774 22.953,10.774 7.301,0 13.988,-2.664 20.051,-7.973 6,-5.371 9.148,-13.261 9.426,-23.648 l 0,-60.449 -17.719,0 0,54.207 c 0,6.382 -1.641,11.23 -4.934,14.57 -3.234,3.391 -7.394,5.082 -12.507,5.082 -5.098,0 -9.297,-1.691 -12.586,-5.082 -3.352,-3.34 -5.024,-8.188 -5.024,-14.57 l 0,-54.207 -17.719,0 0,127.726 z M 245.051,316.68 c -3.852,-4.532 -8.379,-8.219 -13.59,-11.071 -5.211,-2.957 -11.242,-4.5 -18.094,-4.609 -10.398,0 -19.527,3.648 -27.387,10.949 -8.136,7.309 -12.328,19.141 -12.55,35.5 0.222,16.539 4.414,28.524 12.55,35.942 7.868,7.308 17,10.902 27.411,10.781 6.847,-0.125 12.871,-1.574 18.078,-4.371 5.203,-2.852 9.73,-6.672 13.582,-11.449 l -13.082,-11.981 c -4.469,6.156 -10.442,9.359 -17.899,9.59 -15.062,0.238 -22.699,-9.273 -22.933,-28.512 0.234,-19.121 7.871,-28.539 22.922,-28.25 7.468,0.121 13.441,3.289 17.91,9.512 l 13.082,-12.031 z m -108.43,23.949 -21.199,0 c -10.301,-0.238 -15.395,-3.91 -15.27,-11 0,-3.109 1.317,-5.758 3.981,-7.93 2.547,-2.398 6.758,-3.609 12.637,-3.609 7.41,-0.11 12.64,0.801 15.703,2.73 2.765,1.938 4.148,6.336 4.148,13.2 l 0,6.609 z m 0,-30.563 -0.332,0 c -1.641,-3.086 -4.18,-5.343 -7.617,-6.804 -3.395,-1.516 -8.082,-2.262 -14.063,-2.262 -9.82,0.109 -17.3785,2.801 -22.691,8.047 -5.5899,5.141 -8.3789,11.715 -8.3789,19.715 0,7.648 2.4218,13.988 7.2812,19.008 4.8477,5.14 11.9567,7.761 21.3357,7.878 l 24.465,0 0,9.649 c 0.117,8.082 -5.891,12.012 -18.043,11.773 -4.398,0 -7.871,-0.468 -10.418,-1.41 -2.652,-1.117 -4.742,-3.008 -6.262,-5.672 L 87.9961,380.98 c 6.7266,9.032 16.6449,13.43 29.7419,13.192 11.071,0.121 19.914,-2.043 26.52,-6.481 6.609,-4.55 9.972,-12.382 10.082,-23.48 l 0,-62.109 -17.719,0 0,7.964 z M 0,429.828 l 78.9883,0 0,-18.207 -60.3164,0 0,-37.75 51.4883,0 0,-17.078 -51.4883,0 0,-54.691 -18.6719,0 0,127.726"
         style="fill:#f6871d;fill-opacity:1;fill-rule:nonzero;stroke:none"
         id="path14"
         inkscape:connector-curvature="0" /><path
         d="m 716.934,204.309 c -4.2,0 -7.403,-0.723 -9.61,-2.2 -2.453,-1.589 -4.238,-3.75 -5.359,-6.511 -1.086,-2.754 -1.797,-5.743 -2.129,-8.977 -0.344,-3.457 -0.52,-7.012 -0.52,-10.644 0,-3.465 0.176,-6.836 0.52,-10.118 0.332,-3.464 1.043,-6.582 2.129,-9.328 1.121,-2.644 2.906,-4.812 5.359,-6.519 2.207,-1.645 5.41,-2.461 9.61,-2.461 4.187,0 7.507,0.879 9.953,2.637 2.429,1.707 4.097,3.933 5.015,6.699 1.133,2.754 1.899,5.84 2.297,9.234 0.11,3.344 0.164,6.633 0.164,9.856 0,3.515 -0.054,6.894 -0.164,10.117 -0.398,3.222 -1.164,6.219 -2.297,8.972 -0.918,2.766 -2.586,4.993 -5.015,6.692 -2.446,1.699 -5.766,2.551 -9.953,2.551 m 17.429,-64.426 c -5.84,-6.797 -13.457,-10.313 -22.847,-10.547 -5.332,0.129 -9.895,1.262 -13.684,3.43 -3.977,2.105 -7.285,4.91 -9.941,8.425 -2.442,2.864 -4.051,6.747 -4.856,11.661 -0.957,4.675 -1.433,12.402 -1.433,23.164 0,10.937 0.476,18.711 1.433,23.332 0.805,4.683 2.414,8.457 4.856,11.328 4.98,7.605 12.863,11.551 23.625,11.844 4.519,0 8.718,-0.957 12.578,-2.879 3.562,-2.036 6.992,-4.641 10.269,-7.844 l 0,46.379 17.727,0 0,-127.727 -17.727,0 0,9.434 z m -149.152,81.523 17.719,0 0,-9.636 0.34,0 c 5.832,7.168 13.476,10.75 22.941,10.75 7.305,0 14.004,-2.657 20.059,-7.969 5.996,-5.379 9.14,-13.262 9.433,-23.653 l 0,-60.449 -17.723,0 0,54.207 c 0,6.367 -1.652,11.235 -4.933,14.563 -3.242,3.386 -7.402,5.09 -12.5,5.09 -5.117,0 -9.309,-1.704 -12.598,-5.09 -3.347,-3.328 -5.019,-8.196 -5.019,-14.563 l 0,-54.207 -17.719,0 0,90.957 z m -96.395,0 17.723,0 0,-54.265 c 0,-6.157 1.668,-10.957 5.02,-14.407 3.289,-3.457 7.48,-5.183 12.589,-5.183 5.11,0 9.27,1.726 12.512,5.183 3.281,3.45 4.934,8.25 4.934,14.407 l 0,54.265 17.719,0 0,-90.957 -17.719,0 0,9.727 -0.344,0 c -5.84,-7.227 -13.461,-10.84 -22.859,-10.84 -7.313,0.129 -13.899,2.859 -19.801,8.223 -6.399,5.254 -9.649,13.007 -9.774,23.281 l 0,60.566 z m -153.566,0 17.758,0 0,-9.636 0.344,0 c 6.019,7.168 13.929,10.75 23.75,10.75 6.296,-0.118 11.378,-1.204 15.238,-3.243 3.797,-2.273 7.269,-5.168 10.43,-8.679 7.117,8.062 16.668,12.039 28.652,11.922 7.527,0 14.43,-2.657 20.68,-7.969 6.191,-5.379 9.398,-13.262 9.636,-23.653 l 0,-60.449 -17.75,0 0,54.207 c 0,6.367 -1.699,11.235 -5.078,14.563 -3.39,3.386 -7.758,5.09 -13.109,5.09 -5.34,0 -9.742,-1.704 -13.188,-5.09 -3.511,-3.328 -5.265,-8.196 -5.265,-14.563 l 0,-54.207 -17.719,0 0,54.207 c 0,6.367 -1.691,11.235 -5.066,14.563 -3.434,3.386 -7.825,5.09 -13.161,5.09 -5.332,0 -9.691,-1.704 -13.074,-5.09 -3.547,-3.328 -5.332,-8.196 -5.332,-14.563 l 0,-54.207 -17.746,0 0,90.957 z m -53.469,27.696 17.723,0 0,-27.696 12.898,0 0,-13.926 -12.898,0 0,-53.164 c -0.125,-4.628 1.965,-6.882 6.277,-6.765 l 6.621,0 0,-17.102 -9.242,0 c -6.222,0 -11.32,1.992 -15.269,5.957 -4.082,3.809 -6.11,9.297 -6.11,16.477 l 0,54.597 -8.883,0 0,13.926 8.883,0 0,27.696 z m -79.922,-27.696 17.719,0 0,-9.636 0.371,0 c 5.821,7.168 13.469,10.75 22.922,10.75 7.078,-0.118 13.246,-2.442 18.512,-6.985 l -12.91,-15.801 c -3.743,3.059 -7.621,4.575 -11.641,4.575 -4.543,0 -8.426,-1.516 -11.641,-4.563 -3.632,-2.976 -5.5,-7.805 -5.613,-14.465 l 0,-54.832 -17.719,0 0,90.957 z M 162.68,175.801 c 0,6.512 -0.278,11.262 -0.848,14.258 -0.562,2.871 -1.719,5.39 -3.473,7.558 -1.296,2.063 -3.218,3.672 -5.761,4.844 -2.426,1.23 -5.258,1.848 -8.477,1.848 -2.992,0 -5.762,-0.618 -8.301,-1.848 -2.429,-1.172 -4.398,-2.781 -5.933,-4.844 -1.528,-2.168 -2.625,-4.687 -3.293,-7.566 -0.688,-2.988 -1.024,-7.68 -1.024,-14.074 0,-6.336 0.336,-10.977 1.024,-13.907 0.668,-2.988 1.765,-5.632 3.293,-7.922 1.535,-1.753 3.504,-3.32 5.933,-4.656 2.539,-1.301 5.309,-1.941 8.301,-1.941 3.219,0 6.051,0.64 8.477,1.941 2.543,1.336 4.465,2.903 5.761,4.656 1.754,2.29 2.911,4.934 3.473,7.922 0.57,2.93 0.848,7.508 0.848,13.731 m -54.828,0.176 c 0,9.597 0.757,16.984 2.289,22.128 1.578,5.047 4.007,9.29 7.293,12.747 2.414,3.015 5.808,5.718 10.164,8.093 4.293,2.266 9.804,3.457 16.523,3.575 6.949,-0.118 12.567,-1.321 16.871,-3.594 4.238,-2.395 7.508,-5.117 9.828,-8.156 3.5,-3.446 5.993,-7.684 7.461,-12.711 1.41,-5.137 2.117,-12.5 2.117,-22.082 0,-9.59 -0.707,-16.883 -2.117,-21.914 -1.468,-5.032 -3.961,-9.383 -7.461,-13.067 -1.129,-1.348 -2.507,-2.656 -4.148,-3.945 -1.473,-1.465 -3.359,-2.715 -5.68,-3.762 -4.293,-2.519 -9.922,-3.824 -16.871,-3.953 -6.719,0.129 -12.23,1.434 -16.523,3.953 -4.344,2.27 -7.739,4.856 -10.164,7.707 -3.286,3.684 -5.715,8.035 -7.293,13.067 -1.532,5.031 -2.289,12.324 -2.289,21.914 m -88.3481,-27.317 22.4141,0 c 10.5351,0 18.1797,3.723 22.9297,11.153 2.1015,2.746 3.4336,6.222 3.9921,10.453 0.5118,4.148 0.7696,11.922 0.7696,23.347 0,11.114 -0.2578,19.075 -0.7696,23.875 -0.6718,4.797 -2.2929,8.696 -4.8398,11.684 -5.2109,7.43 -12.5703,11.023 -22.082,10.801 l -22.4141,0 0,-91.313 z m -18.671869,109.516 43.226569,0 c 16.7227,-0.117 29.2695,-7.309 37.6289,-21.543 2.9805,-4.809 4.8711,-9.824 5.6602,-15.07 0.6211,-5.262 0.9336,-14.344 0.9336,-27.254 0,-13.723 -0.4844,-23.301 -1.4415,-28.735 -0.457,-2.742 -1.1328,-5.191 -2.039,-7.351 -0.961,-2.102 -2.1211,-4.297 -3.4727,-6.575 -3.6093,-6.011 -8.6367,-10.972 -15.0781,-14.89 -6.3828,-4.207 -14.2109,-6.309 -23.4727,-6.309 l -41.945269,0 0,127.727"
         style="fill:#f6871d;fill-opacity:1;fill-rule:nonzero;stroke:none"
         id="path16"
         inkscape:connector-curvature="0" /><path
         d="m 1191.39,25.6367 c 0,5.3203 -3.02,8.6406 -9.34,10.0078 l -4.63,1.0039 c -3.72,0.793 -5.05,2.4532 -5.05,5.1875 0,3.5235 2.6,5.9063 6.61,5.9063 3.07,0 5.67,-1.082 8.76,-2.5977 l 2.03,4.1719 c -2.95,1.7383 -7.02,2.8906 -10.66,2.8906 -7.3,0 -12.42,-4.5429 -12.42,-11.0156 0,-4.9687 3.08,-8.6406 8.84,-9.875 l 4.35,-0.9258 c 4,-0.8672 5.76,-2.6679 5.76,-5.9101 0,-3.8086 -2.82,-6.1914 -7.1,-6.1914 -3.85,0 -7.5,1.1562 -11.08,3.3789 l -2.11,-4.168 c 3.58,-2.2266 8.42,-3.6016 12.84,-3.6016 7.86,0 13.2,4.7539 13.2,11.7383 m -31.79,25.2031 -8.77,0 c 0,4.7461 0.7,10.3711 0.7,10.3711 l -5.75,-1.3007 c 0,0 -0.57,-5.625 -0.57,-9.0704 l -4.56,0 0,-4.246 4.56,0 0,-24.629 c 0,-3.6054 0.92,-5.8984 3.38,-7.1289 1.33,-0.6445 2.73,-1.0078 4.55,-1.0078 2.46,0 4.42,0.5 6.18,1.4453 l -0.77,3.5938 c -0.99,-0.5078 -1.9,-0.7109 -3.44,-0.7109 -3.44,0 -4.5,1.3554 -4.5,5.3125 l 0,23.125 7.3,0 1.69,4.246 z m -24.28,0.7227 c 0,0 -0.98,0.3633 -1.89,0.3633 -3.57,0 -7.3,-2.3164 -9.82,-5.9883 0.21,3.0273 -1.13,5.832 -1.13,5.832 l -5.47,-1.5039 c 0,0 1.19,-2.3828 1.19,-7.6367 l 0,-27.6484 5.48,0 0,22.4609 c 0,2.957 0.42,4.043 2.03,5.6953 1.61,1.6485 3.72,2.586 5.83,2.586 0.56,0 1.19,-0.1485 1.53,-0.2852 l 2.25,6.125 z M 1098.06,35 1083.11,35 1090.7,59.1875 1098.06,35 Z m 12.58,-20.0195 -15.94,49.3828 -7.51,0 -16.07,-49.3828 5.82,0 4.63,15.1836 17.97,0 4.56,-15.1836 6.54,0 z m -69.96,9.1406 c 0,0 -0.65,-1.5156 -2.12,-2.5859 -2.24,-1.6641 -3.86,-2.3086 -6.74,-2.3086 -3.21,0 -5.4,1.2226 -7.01,4.1718 -1.13,2.0899 -1.41,5.1954 -1.41,9.3672 0,5.0391 0.58,7.6328 2.25,10.3711 1.47,2.4375 3.79,3.75 6.53,3.75 4.14,0 6.73,-1.2344 8.5,-3.75 l 0,-19.0156 z m 6.58,-9.1406 c -0.77,2.0898 -1.05,5.4023 -1.05,11.5937 l 0,40.0352 -5.47,0.9297 0,-15.0508 c 0,-2.586 0.07,-5.5352 0.07,-5.5352 -2.11,2.8828 -5.54,4.5391 -9.48,4.5391 -2.52,0 -4.49,-0.6524 -6.73,-2.2461 -4.76,-3.3789 -7.23,-8.9922 -7.23,-16.6289 0,-11.4453 5.19,-18.1445 14.24,-18.1445 4.07,0 6.74,1.2304 9.27,4.1796 0.07,-1.875 0.77,-3.6718 0.77,-3.6718 l 5.61,0 z m -40.28,0 0,27.2148 c 0,1.4492 -0.28,2.8828 -0.84,4.1719 -1.41,3.1719 -4.77,5.2656 -8.562,5.2656 -3.723,0 -7.363,-1.7969 -11.008,-5.5469 0,2.9571 -1.265,5.6133 -1.265,5.6133 l -5.332,-1.5117 c 0,0 1.328,-2.4453 1.328,-7.5586 l 0,-27.6484 5.34,0 0,26.707 c 2.519,2.7461 6.867,5.043 9.675,5.043 1.614,0 3.098,-0.5703 3.864,-1.5039 0.98,-1.2227 1.26,-2.168 1.26,-5.9883 l 0,-24.2578 5.54,0 z m -44.343,18.2226 -0.203,-9.375 c -1.621,-3.3789 -4.922,-5.6054 -8.496,-5.6054 -3.997,0 -6.04,2.2968 -6.04,6.5429 0,5.4766 3.165,8.5742 12.004,8.5742 0.977,0 1.828,-0.0703 2.735,-0.1367 m 8.078,-15.5664 c -2.61,1.4453 -2.949,2.9492 -2.817,8.7891 l 0.286,11.8164 c 0.07,3.2422 0,5.9687 -0.774,7.918 -1.472,3.6757 -4.844,5.6093 -9.676,5.6093 -5.066,0 -10.046,-1.6523 -14.675,-4.8164 l 2.742,-4.0312 c 2.234,2.0781 7.219,4.2344 11.152,4.2344 2.18,0 3.574,-0.6329 4.707,-1.9297 0.977,-1.1563 1.121,-2.4532 1.121,-5.625 l 0,-2.5235 c 0,0 -0.984,0.0782 -2.461,0.0782 -11.715,0 -18.523,-4.754 -18.523,-12.8868 0,-4.8242 2.598,-10.2265 11.223,-10.2265 4,0 6.738,1.3672 10.117,4.8242 0.625,-2.5195 2.371,-4.4609 4.761,-5.2539 l 2.817,4.0234 z m -54.035,8 c 0,5.3203 -3.02,8.6406 -9.336,10.0078 l -4.629,1.0039 c -3.723,0.793 -5.059,2.4532 -5.059,5.1875 0,3.5235 2.61,5.9063 6.602,5.9063 3.086,0 5.683,-1.082 8.769,-2.5977 l 2.032,4.1719 c -2.942,1.7383 -7.012,2.8906 -10.657,2.8906 -7.3,0 -12.422,-4.5429 -12.422,-11.0156 0,-4.9687 3.079,-8.6406 8.84,-9.875 l 4.348,-0.9258 c 4.004,-0.8672 5.75,-2.6679 5.75,-5.9101 0,-3.8086 -2.805,-6.1914 -7.078,-6.1914 -3.86,0 -7.512,1.1562 -11.086,3.3789 L 890.645,17.5 c 3.574,-2.2266 8.418,-3.6016 12.832,-3.6016 7.863,0 13.203,4.7539 13.203,11.7383 m -39.864,10.586 -15.996,0 c 0.285,7.4218 3.086,11.1601 8.067,11.1601 2.676,0 5.129,-1.2226 6.328,-3.1719 1.047,-1.7304 1.531,-4.1054 1.601,-7.9882 m 5.821,-4.25 0,0.7929 c 0,8.5625 -0.977,11.9532 -3.992,15.1172 -2.383,2.5156 -5.684,3.8867 -9.473,3.8867 -4.211,0 -7.649,-1.582 -10.449,-4.9726 -2.953,-3.5938 -4.211,-7.4805 -4.211,-13.5274 0,-11.8828 5.82,-19.0781 15.5,-19.0781 4.492,0 8.699,1.582 11.785,4.4609 l -2.102,3.5938 c -2.461,-2.293 -5.191,-3.3789 -8.55,-3.3789 -3.516,0 -6.743,1.2891 -8.711,4.3945 -1.196,1.8672 -1.614,4.461 -1.614,7.8516 l 0,0.8594 21.817,0 z m -35.078,-13.0391 -3.016,3.6055 c -2.031,-2.5196 -4.699,-3.8868 -7.512,-3.8868 -5.613,0 -8.633,4.3829 -8.633,12.461 0,5.2422 0.633,9.207 1.973,11.7305 1.262,2.4492 3.859,4.0429 6.594,4.0429 2.664,0 4.207,-0.8008 6.668,-2.8828 l 3.015,3.8789 c -2.527,2.168 -5.125,3.8867 -9.546,3.8867 -3.723,0 -6.731,-1.3711 -9.473,-4.1718 -3.02,-3.0938 -5.258,-7.4219 -5.258,-15.2618 0,-5.332 1.047,-9.3007 3.371,-12.7461 2.449,-3.6054 6.172,-5.3984 11.153,-5.3984 4.343,0 7.429,1.3555 10.664,4.7422 m -35.789,-3.9531 0,27.2148 c 0,1.4492 -0.278,2.8828 -0.84,4.1719 -1.399,3.1719 -4.77,5.2656 -8.559,5.2656 -3.719,0 -7.371,-1.7969 -11.023,-5.5469 0,2.9571 -1.258,5.6133 -1.258,5.6133 l -5.332,-1.5117 c 0,0 1.336,-2.4453 1.336,-7.5586 l 0,-27.6484 5.324,0 0,26.707 c 2.527,2.7461 6.883,5.043 9.695,5.043 1.614,0 3.075,-0.5703 3.86,-1.5039 0.972,-1.2227 1.257,-2.168 1.257,-5.9883 l 0,-24.2578 5.54,0 z m -42.793,21.2422 -16.008,0 c 0.285,7.4218 3.094,11.1601 8.066,11.1601 2.676,0 5.125,-1.2226 6.328,-3.1719 1.043,-1.7304 1.532,-4.1054 1.614,-7.9882 m 5.808,-4.25 0,0.7929 c 0,8.5625 -0.976,11.9532 -3.992,15.1172 -2.387,2.5156 -5.688,3.8867 -9.477,3.8867 -4.207,0 -7.644,-1.582 -10.449,-4.9726 -2.945,-3.5938 -4.207,-7.4805 -4.207,-13.5274 0,-11.8828 5.82,-19.0781 15.496,-19.0781 4.492,0 8.703,1.582 11.789,4.4609 l -2.097,3.5938 c -2.453,-2.293 -5.2,-3.3789 -8.555,-3.3789 -3.52,0 -6.738,1.2891 -8.715,4.3945 -1.187,1.8672 -1.609,4.461 -1.609,7.8516 l 0,0.8594 21.816,0 z m -38.933,-16.9922 0,36.6523 -5.684,-0.9414 0,-35.7109 5.684,0 z m 1.543,46.9531 c 0,2.4297 -1.899,4.3828 -4.29,4.3828 -2.375,0 -4.277,-2.0195 -4.277,-4.4687 0,-2.3672 1.902,-4.3204 4.277,-4.3204 2.391,0 4.29,1.9532 4.29,4.4063 m -16.567,-43 -3.008,3.6055 c -2.039,-2.5196 -4.715,-3.8868 -7.507,-3.8868 -5.625,0 -8.633,4.3829 -8.633,12.461 0,5.2422 0.633,9.207 1.965,11.7305 1.257,2.4492 3.855,4.0429 6.597,4.0429 2.656,0 4.211,-0.8008 6.66,-2.8828 l 3.02,3.8789 c -2.527,2.168 -5.117,3.8867 -9.539,3.8867 -3.723,0 -6.738,-1.3711 -9.485,-4.1718 -3.007,-3.0938 -5.253,-7.4219 -5.253,-15.2618 0,-5.332 1.043,-9.3007 3.371,-12.7461 2.461,-3.6054 6.172,-5.3984 11.152,-5.3984 4.352,0 7.437,1.3555 10.66,4.7422 m -33.887,10.0117 c 0,3.0938 -1.187,6.4141 -3.164,8.711 -1.961,2.3046 -4.207,3.6054 -8.484,4.9726 l -5.547,1.8047 c -5.676,1.8672 -8,4.0898 -8,8.0547 0,5.039 3.586,8.1484 9.609,8.1484 4.141,0 7.09,-1.0859 11.719,-4.1914 l 2.531,4.2578 c -4.55,3.1641 -9.328,4.7461 -14.519,4.7461 -9.34,0 -15.59,-5.7617 -15.59,-14.1797 0,-3.1718 1.067,-5.9101 3.02,-8.0664 1.906,-2.0117 4.218,-3.0273 8.562,-4.3945 l 4.848,-1.5039 c 5.828,-1.8086 8.633,-4.8242 8.633,-9.2266 0,-2.8828 -1.125,-5.2461 -3.442,-7.0508 -2.039,-1.582 -4.004,-2.1601 -7.644,-2.1601 -4.844,0 -8.914,1.2891 -12.91,4.2383 l -2.532,-4.5977 c 4.77,-3.0312 9.68,-4.4648 15.442,-4.4648 4.414,0 7.644,0.9375 10.808,3.0273 4.282,2.8008 6.66,7.2656 6.66,11.875 m -65.964,-4.8242 c 0,0 -0.625,-1.5156 -2.09,-2.5859 -2.254,-1.6641 -3.867,-2.3086 -6.746,-2.3086 -3.235,0 -5.403,1.2226 -7.024,4.1718 -1.113,2.0899 -1.394,5.1954 -1.394,9.3672 0,5.0391 0.554,7.6328 2.254,10.3711 1.464,2.4375 3.769,3.75 6.511,3.75 4.145,0 6.742,-1.2344 8.489,-3.75 l 0,-19.0156 z m 6.601,-9.1406 c -0.762,2.0898 -1.055,5.4023 -1.055,11.5937 l 0,40.0352 -5.468,0.9297 0,-15.0508 c 0,-2.586 0.058,-5.5352 0.058,-5.5352 -2.09,2.8828 -5.527,4.5391 -9.465,4.5391 -2.527,0 -4.492,-0.6524 -6.738,-2.2461 -4.773,-3.3789 -7.219,-8.9922 -7.219,-16.6289 0,-11.4453 5.192,-18.1445 14.243,-18.1445 4.062,0 6.738,1.2304 9.257,4.1796 0.071,-1.875 0.762,-3.6718 0.762,-3.6718 l 5.625,0 z m -44.488,21.2422 -16,0 c 0.277,7.4218 3.09,11.1601 8.07,11.1601 2.672,0 5.117,-1.2226 6.32,-3.1719 1.047,-1.7304 1.54,-4.1054 1.61,-7.9882 m 5.82,-4.25 0,0.7929 c 0,8.5625 -0.98,11.9532 -4,15.1172 -2.383,2.5156 -5.68,3.8867 -9.472,3.8867 -4.208,0 -7.649,-1.582 -10.45,-4.9726 -2.945,-3.5938 -4.207,-7.4805 -4.207,-13.5274 0,-11.8828 5.821,-19.0781 15.496,-19.0781 4.493,0 8.703,1.582 11.793,4.4609 l -2.097,3.5938 c -2.461,-2.293 -5.203,-3.3789 -8.563,-3.3789 -3.508,0 -6.742,1.2891 -8.699,4.3945 -1.199,1.8672 -1.621,4.461 -1.621,7.8516 l 0,0.8594 21.82,0 z m -38.937,-16.9922 0,36.6523 -5.68,-0.9414 0,-35.7109 5.68,0 z m 1.535,46.9531 c 0,2.4297 -1.891,4.3828 -4.278,4.3828 -2.382,0 -4.281,-2.0195 -4.281,-4.4687 0,-2.3672 1.899,-4.3204 4.281,-4.3204 2.387,0 4.278,1.9532 4.278,4.4063 m -16.699,-46.8867 -1.118,3.6758 c 0,0 -0.492,-0.1368 -0.703,-0.1368 -1.539,0 -1.968,0.7774 -1.968,3.5899 l 0,36.6523 c 0,5.4688 -0.907,8.5078 -0.907,8.5078 L 524.641,66.25 c 0,0 0.839,-2.6641 0.839,-7.3555 l 0,-38.0156 c 0,-2.5898 0.559,-4.1016 1.676,-5.1055 1.063,-1.0156 2.461,-1.5156 4.145,-1.5156 1.476,0 2.105,0.1485 3.508,0.7891 m -26.172,17.2109 c 0,-4.0273 -0.418,-6.7695 -1.469,-9.0625 -1.195,-2.6758 -4.137,-4.4726 -7.367,-4.4726 -2.949,0 -5.973,1.6601 -8.563,4.6757 l 0,18.086 c 2.664,3.3008 5.825,5.039 9.332,5.039 2.809,0 5.328,-1.5234 6.461,-3.9648 0.977,-2.1602 1.606,-5.9766 1.606,-10.3008 m 5.82,0.7227 c 0,6.414 -1.258,10.7968 -3.855,14.1093 -2.243,2.8829 -5.754,4.4727 -9.332,4.4727 -3.86,0 -7.442,-1.8047 -10.309,-5.2617 0,3.9648 -0.352,5.4687 -0.352,5.4687 l -5.621,-1 c 0,0 0.774,-2.2461 0.774,-7.7109 l 0,-43.0586 5.476,1.08594 0,17.13676 c 2.453,-2.586 6.032,-4.1797 9.614,-4.1797 4.558,0 8.281,2.3711 10.808,6.5429 1.957,3.3204 2.797,6.6329 2.797,12.3946 m -45.535,-0.7227 c 0,-4.0273 -0.422,-6.7695 -1.473,-9.0625 -1.187,-2.6758 -4.136,-4.4726 -7.371,-4.4726 -2.937,0 -5.957,1.6601 -8.558,4.6757 l 0,18.086 c 2.668,3.3008 5.828,5.039 9.332,5.039 2.808,0 5.339,-1.5234 6.457,-3.9648 0.984,-2.1602 1.613,-5.9766 1.613,-10.3008 m 5.828,0.7227 c 0,6.414 -1.27,10.7968 -3.859,14.1093 -2.254,2.8829 -5.758,4.4727 -9.332,4.4727 -3.86,0 -7.438,-1.8047 -10.321,-5.2617 0,3.9648 -0.347,5.4687 -0.347,5.4687 l -5.614,-1 c 0,0 0.774,-2.2461 0.774,-7.7109 l 0,-43.0586 5.469,1.08594 0,17.13676 c 2.46,-2.586 6.039,-4.1797 9.609,-4.1797 4.57,0 8.281,2.3711 10.809,6.5429 1.972,3.3204 2.812,6.6329 2.812,12.3946 M 425.906,35 410.961,35 418.539,59.1875 425.906,35 Z m 12.567,-20.0195 -15.934,49.3828 -7.512,0 -16.066,-49.3828 5.828,0 4.629,15.1836 17.961,0 4.559,-15.1836 6.535,0 z m -54.942,50.039 c -2.043,1.3672 -4.703,2.0899 -7.718,2.0899 -2.606,0 -4.497,-0.5781 -6.184,-1.8672 -1.469,-1.1484 -3.859,-3.4649 -3.859,-8.7969 l 0,-5.6055 -3.36,0 0,-4.246 3.36,0 0,-31.6133 5.757,0 0,31.6133 8.004,0 1.68,4.246 -9.684,0 0,5.5391 c 0,4.1094 1.68,6.3477 4.774,6.3477 1.887,0 3.859,-0.8789 5.187,-1.6641 l 2.043,3.957 z M 347.672,31.9023 c 0,-3.5351 -0.285,-5.5546 -1.051,-7.7812 -1.199,-3.4492 -3.93,-5.3984 -7.582,-5.3984 -3.019,0 -5.82,1.4336 -7.09,3.6015 -1.328,2.2266 -2.168,6.6992 -2.168,11.7383 0,4.25 0.563,7.1289 1.68,9.3555 1.191,2.3828 4.07,3.8945 7.156,3.8945 2.883,0 5.961,-1.4453 7.442,-4.6172 1.121,-2.375 1.613,-5.7539 1.613,-10.793 m 6.25,0.4336 c 0,5.8282 -1.063,10.0743 -3.234,13.3164 -2.387,3.5274 -6.176,6.2735 -11.997,6.2735 -9.187,0 -14.882,-7.1406 -14.882,-18.8125 0,-11.8047 5.484,-19.0703 15.093,-19.0703 8.77,0 15.02,6.3398 15.02,18.2929 m -53.332,18.5039 -6.25,0 -6.879,-23.5546 c -0.84,-2.9493 -2.172,-7.5586 -2.172,-7.5586 l -0.137,0 c 0,0 -1.05,5.5468 -2.109,8.9336 l -7.152,23.2656 -5.411,-1.875 7.508,-22.4727 c 1.192,-3.5937 3.09,-10.5859 3.512,-12.8906 l 2.25,0.3594 C 281.852,7.78125 280.172,5.46875 275.68,4.03125 l 1.609,-3.808594 C 283.391,1.72656 286.27,6.48438 288.59,13.6797 l 12,37.1601 z m -34.809,0 -8.769,0 c 0,4.7461 0.699,10.3711 0.699,10.3711 l -5.754,-1.3007 c 0,0 -0.555,-5.625 -0.555,-9.0704 l -4.562,0 0,-4.246 4.562,0 0,-24.629 c 0,-3.6054 0.907,-5.8984 3.368,-7.1289 1.328,-0.6445 2.73,-1.0078 4.562,-1.0078 2.449,0 4.418,0.5 6.164,1.4453 l -0.766,3.5938 c -0.98,-0.5078 -1.898,-0.7109 -3.441,-0.7109 -3.437,0 -4.488,1.3554 -4.488,5.3125 l 0,23.125 7.301,0 1.679,4.246 z m -28.215,-35.8593 0,36.6523 -5.675,-0.9414 0,-35.7109 5.675,0 z m 1.555,46.9531 c 0,2.4297 -1.898,4.3828 -4.281,4.3828 -2.391,0 -4.277,-2.0195 -4.277,-4.4687 0,-2.3672 1.886,-4.3204 4.277,-4.3204 2.383,0 4.281,1.9532 4.281,4.4063 M 221.508,25.6367 c 0,5.3203 -3.016,8.6406 -9.34,10.0078 l -4.629,1.0039 c -3.723,0.793 -5.051,2.4532 -5.051,5.1875 0,3.5235 2.602,5.9063 6.594,5.9063 3.086,0 5.688,-1.082 8.777,-2.5977 l 2.028,4.1719 c -2.949,1.7383 -7.016,2.8906 -10.657,2.8906 -7.3,0 -12.429,-4.5429 -12.429,-11.0156 0,-4.9687 3.086,-8.6406 8.847,-9.875 L 210,30.3906 c 4,-0.8672 5.754,-2.6679 5.754,-5.9101 0,-3.8086 -2.816,-6.1914 -7.094,-6.1914 -3.859,0 -7.5,1.1562 -11.082,3.3789 L 195.469,17.5 c 3.578,-2.2266 8.422,-3.6016 12.844,-3.6016 7.859,0 13.195,4.7539 13.195,11.7383 m -30.457,25.9258 c 0,0 -0.985,0.3633 -1.891,0.3633 -3.578,0 -7.301,-2.3164 -9.828,-5.9883 0.207,3.0273 -1.125,5.832 -1.125,5.832 l -5.469,-1.5039 c 0,0 1.192,-2.3828 1.192,-7.6367 l 0,-27.6484 5.468,0 0,22.4609 c 0,2.957 0.422,4.043 2.043,5.6953 1.61,1.6485 3.719,2.586 5.821,2.586 0.558,0 1.199,-0.1485 1.547,-0.2852 l 2.242,6.125 z m -34.238,-15.3398 -16,0 c 0.277,7.4218 3.089,11.1601 8.07,11.1601 2.664,0 5.117,-1.2226 6.316,-3.1719 1.051,-1.7304 1.539,-4.1054 1.614,-7.9882 m 5.82,-4.25 0,0.7929 c 0,8.5625 -0.985,11.9532 -4.004,15.1172 -2.379,2.5156 -5.68,3.8867 -9.469,3.8867 -4.211,0 -7.652,-1.582 -10.461,-4.9726 -2.937,-3.5938 -4.207,-7.4805 -4.207,-13.5274 0,-11.8828 5.828,-19.0781 15.508,-19.0781 4.492,0 8.699,1.582 11.793,4.4609 l -2.102,3.5938 c -2.461,-2.293 -5.199,-3.3789 -8.562,-3.3789 -3.508,0 -6.738,1.2891 -8.707,4.3945 -1.192,1.8672 -1.609,4.461 -1.609,7.8516 l 0,0.8594 21.82,0 z m -33.395,18.8671 -5.82,0 -7.996,-23.8359 c -1.121,-3.2422 -1.684,-6.0547 -1.684,-6.0547 l -0.14,0 c 0,0 -0.7,3.1719 -1.688,6.1211 l -8.14,24.6992 -5.6098,-1.2226 12.5588,-35.9297 5.398,0 13.121,36.2226 z m -38.8005,-35.8593 0,36.6523 -5.6758,-0.9414 0,-35.7109 5.6758,0 z m 1.543,46.9531 c 0,2.4297 -1.8907,4.3828 -4.2813,4.3828 -2.3789,0 -4.2812,-2.0195 -4.2812,-4.4687 0,-2.3672 1.9023,-4.3204 4.2812,-4.3204 2.3906,0 4.2813,1.9532 4.2813,4.4063 M 71.918,14.9805 l 0,27.2148 c 0,1.4492 -0.2774,2.8828 -0.8477,4.1719 -1.4023,3.1719 -4.7695,5.2656 -8.5586,5.2656 -3.7226,0 -7.3594,-1.7969 -11.0117,-5.5469 0,2.9571 -1.2695,5.6133 -1.2695,5.6133 l -5.3282,-1.5117 c 0,0 1.3282,-2.4453 1.3282,-7.5586 l 0,-27.6484 5.3437,0 0,26.707 c 2.5196,2.7461 6.8672,5.043 9.6758,5.043 1.6094,0 3.0898,-0.5703 3.8633,-1.5039 0.9765,-1.2227 1.2578,-2.168 1.2578,-5.9883 l 0,-24.2578 5.5469,0 z m -39.1602,14.2578 0,35.125 -5.6758,0 0,-34.4024 c 0,-3.3203 -0.2109,-5.4804 -1.832,-7.7148 -1.4687,-2.0117 -4.4883,-3.0938 -8.4922,-3.0938 -5.8906,0 -8.48436,2.6641 -9.39842,4.8321 -0.63282,1.5039 -0.83985,4.6758 -0.83985,7.1289 l 0,33.25 -5.687499,0 0,-35.418 c 0,-2.1601 0.140625,-5.3242 1.410159,-7.707 2.58594,-4.8906 6.79687,-7.1289 14.23831,-7.1289 5.8281,0 9.6914,1.2344 12.6289,3.8203 2.8828,2.5195 3.6484,5.332 3.6484,11.3086"
         style="fill:#231f20;fill-opacity:1;fill-rule:nonzero;stroke:none"
         id="path18"
         inkscape:connector-curvature="0" /></g></g></svg>