<?xml version="1.0" encoding="utf-8"?>
<!-- Generator: Adobe Illustrator 16.0.0, SVG Export Plug-In . SVG Version: 6.00 Build 0)  -->
<!DOCTYPE svg PUBLIC "-//W3C//DTD SVG 1.1//EN" "http://www.w3.org/Graphics/SVG/1.1/DTD/svg11.dtd">
<svg version="1.1" id="Layer_1" xmlns="http://www.w3.org/2000/svg" xmlns:xlink="http://www.w3.org/1999/xlink" x="0px" y="0px"
	 width="612px" height="792px" viewBox="0 0 612 792" enable-background="new 0 0 612 792" xml:space="preserve">
<path display="none" d="M480.982-177.873l44.878,33.269l-48.508,47.668V47.14h17.179V13.021H607.28V47.14h17.179V13.021h165.736
	V47.14h17.179V13.021h27.1V47.14h17.185V-80.609c11.01,23.349,12.938,79.965,5.802,169.849c9.314-4.719,17.784-12.582,25.159-23.586
	c13.072-19.119,19.357-42.223,18.874-69.321c-0.367-26.978-7.503-50.086-21.169-69.321c-8.587-11.978-18.146-21.536-28.672-28.795
	H635.468v-53.593c-20.686-58.789-57.821-92.302-111.421-100.649c-58.666-7.259-101.616,7.864-129.076,45.49l-27.944,23.47
	l32.779,1.09l52.387,93.269l22.265-17.302L480.982-177.873L480.982-177.873z M446.263-164.447c2.056,1.812,3.022,4.113,3.022,6.775
	s-0.967,4.963-3.022,6.774c-1.935,1.812-4.364,2.785-7.143,2.785s-5.202-0.967-7.265-2.785c-1.928-1.812-2.9-4.112-2.9-6.774
	s0.967-4.964,2.9-6.775c2.063-1.812,4.48-2.784,7.265-2.784C441.906-167.225,444.323-166.258,446.263-164.447L446.263-164.447z"/>
<path display="none" d="M404.28,560.799v-13.795c0.122,0,0.238,0,0.361,0h22.748c1.817,0,3.262-0.605,4.596-1.934
	s1.934-2.907,1.934-4.719v-6.291c0-1.812-0.605-3.262-1.934-4.596c-1.328-1.335-2.778-1.935-4.596-1.935h-22.748
	c-0.123,0-0.239,0-0.361,0h-38.715v19.964h-8.954V527.53h-20.802v19.964h-2.907c-8.831-22.259-25.526-34.719-50.086-37.259v7.986
	c19.719,2.662,33.513,12.454,41.493,29.272h-64.474v20.202h-37.381v98.354c0.367,0,0.605,0,0.851,0h48.023v66.292H-6.427v128.954
	l98.477,111.176h46.573v-60.483h89.401v60.483h45.967l125.57-118.679c1.934,1.934,3.752,3.751,5.569,5.324
	c-0.129,0.122-0.245,0.245-0.245,0.367l-27.105,25.526v57.822h48.274V806.376H404.28v-60.483c0.122,0,0.238,0,0.361,0h22.748
	c1.817,0,3.262-0.606,4.596-1.935s1.934-2.778,1.934-4.596v-6.292c0-1.812-0.605-3.262-1.934-4.596
	c-1.334-1.328-2.778-1.934-4.596-1.934h-22.748c-0.123,0-0.239,0-0.361,0v-13.789c0.122,0,0.238,0,0.361,0h22.748
	c1.817,0,3.262-0.605,4.596-1.934s1.934-2.784,1.934-4.596v-6.292c0-1.812-0.605-3.384-1.934-4.718
	c-1.328-1.335-2.778-1.935-4.596-1.935h-22.748c-0.123,0-0.239,0-0.361,0v-13.666c0.122,0,0.238,0,0.361,0h22.748
	c1.817,0,3.262-0.612,4.596-1.934c1.334-1.334,1.934-2.907,1.934-4.719v-6.285c0-1.817-0.605-3.268-1.934-4.596
	c-1.334-1.335-2.778-1.935-4.596-1.935h-22.748c-0.123,0-0.239,0-0.361,0v-13.666c0.122,0,0.238,0,0.361,0h22.748
	c1.817,0,3.262-0.611,4.596-1.934c1.334-1.334,1.934-2.784,1.934-4.603v-6.285c0-1.817-0.605-3.39-1.934-4.718
	c-1.334-1.328-2.778-1.928-4.596-1.928h-22.748c-0.123,0-0.239,0-0.361,0v-13.673c0.122,0,0.238,0,0.361,0h22.748
	c1.817,0,3.262-0.605,4.596-1.934s1.934-2.778,1.934-4.596v-6.285c0-1.818-0.605-3.269-1.934-4.597
	c-1.334-1.334-2.778-1.934-4.596-1.934h-22.748c-0.123,0-0.239,0-0.361,0v-13.672c0.122,0,0.238,0,0.361,0h22.748
	c1.817,0,3.262-0.606,4.596-1.928c1.334-1.335,1.934-2.907,1.934-4.719v-6.285c0-1.817-0.605-3.269-1.934-4.603
	c-1.334-1.328-2.778-1.928-4.596-1.928h-22.748C404.518,560.799,404.402,560.799,404.28,560.799L404.28,560.799z M321.531,568.302
	c4.113,3.868,6.169,8.464,6.169,13.788c0,5.325-2.056,9.921-6.169,13.666c-4.112,3.752-9.069,5.692-14.878,5.692
	c-5.808,0-10.771-1.935-14.883-5.692c-3.99-3.745-6.047-8.341-6.047-13.666c0-5.324,2.057-9.92,6.047-13.788
	c4.112-3.751,9.069-5.569,14.883-5.569C312.461,562.732,317.418,564.551,321.531,568.302L321.531,568.302z"/>
<path display="none" d="M311.249,582.451c0-2.423-0.729-4.474-2.295-6.291c-1.573-1.689-3.391-2.54-5.447-2.54
	c-2.056,0-3.99,0.851-5.563,2.54c-1.45,1.817-2.179,3.874-2.179,6.291c0,2.54,0.729,4.597,2.179,6.169
	c1.572,1.817,3.507,2.662,5.563,2.662c2.057,0,3.868-0.845,5.447-2.662C310.527,587.048,311.249,584.991,311.249,582.451
	L311.249,582.451z"/>
<path display="none" d="M180.233,645.719c1.695,2.057,3.507,3.99,5.563,5.809c8.348,7.503,17.901,12.099,28.911,13.788v-19.597
	H180.233L180.233,645.719z"/>
<path display="none" d="M169.712,616.686c0,7.748,1.812,14.884,5.324,21.292h39.676v-70.044c-11.01,1.689-20.563,6.285-28.91,13.666
	C175.031,591.282,169.712,603.02,169.712,616.686L169.712,616.686z M193.06,607.25c-1.812-1.812-2.662-3.99-2.662-6.53
	s0.851-4.835,2.662-6.769c1.812-1.818,4.113-2.669,6.652-2.669c2.546,0,4.841,0.851,6.652,2.669
	c1.812,1.934,2.785,4.229,2.785,6.769s-0.967,4.719-2.785,6.53c-1.812,1.817-4.112,2.784-6.652,2.784
	C197.173,610.034,194.871,609.067,193.06,607.25L193.06,607.25z"/>
<path display="none" d="M457.022,519.782c-1.09,0.851-2.057,1.695-3.023,2.54h39.192v23.348c49.241-9.56,82.021,6.652,98.109,48.391
	l0.367-0.128c-0.122,0.128-0.122,0.245-0.238,0.367c-0.129,0.122-0.245,0.245-0.367,0.367c-5.324,5.686-8.715,12.216-10.159,19.596
	c-0.612,2.907-0.967,5.931-0.967,9.07c0,11.493,3.867,21.291,11.731,29.4c2.785,3.023,5.931,5.446,9.192,7.381v38.593h19.48v-31.573
	h9.198v31.573h19.596v-37.987h35.08v37.987h19.597l-0.245-39.56c4.719-15.612,11.977-27.222,21.781-34.964
	c0.122-0.122,0.122-0.122,0.238-0.245c0.129,0.129,0.129,0.129,0.245,0.245c9.798,7.742,17.057,19.352,21.774,34.964l-0.238,39.56
	h18.507V503.332l-104.762-97.143l-93.881,67.626h26.738l50.924,95.809l23.838-20.447l4.963-62.663l8.709,60.362l-45.361,38.715
	c-2.54-1.212-5.079-2.179-7.625-2.784c-3.023-0.723-6.169-1.09-9.432-1.09c-6.896,0-13.188,1.573-18.874,4.841
	c2.057-5.93,3.146-12.222,3.146-18.751c0-18.746-8.47-34.719-25.281-48.03c-16.817-13.183-37.136-19.835-60.974-19.835
	C494.164,499.941,473.839,506.6,457.022,519.782L457.022,519.782z M640.059,494.868c2.056,1.928,3.146,4.229,3.146,7.014
	c0,2.778-1.09,5.079-3.146,7.014c-2.057,1.934-4.603,2.9-7.504,2.9c-2.906,0-5.446-0.961-7.503-2.9
	c-2.056-1.94-3.151-4.235-3.151-7.014c0-2.785,1.096-5.086,3.151-7.014c2.057-1.934,4.597-2.907,7.503-2.907
	C635.456,491.961,638.002,492.934,640.059,494.868L640.059,494.868z"/>
<path display="none" d="M629.287,498.497c-0.851,0.851-1.206,1.935-1.206,3.146c0,1.212,0.361,2.179,1.206,3.023
	c0.851,0.851,1.934,1.334,3.146,1.334s2.179-0.483,3.023-1.334c0.851-0.845,1.334-1.812,1.334-3.023
	c0-1.205-0.483-2.295-1.334-3.146c-0.845-0.851-1.812-1.212-3.023-1.212C631.221,497.279,630.138,497.646,629.287,498.497
	L629.287,498.497z"/>
<path display="none" d="M196.199,456.759v-13.794c0.122,0,0.239,0,0.361,0h22.748c1.817,0,3.262-0.606,4.596-1.935
	s1.935-2.907,1.935-4.719v-6.291c0-1.812-0.606-3.262-1.935-4.596c-1.328-1.335-2.778-1.935-4.596-1.935h-22.748
	c-0.122,0-0.239,0-0.361,0h-38.715v19.964h-8.954V423.49h-20.802v19.964h-2.907c-8.824-22.259-25.526-34.719-50.086-37.259v7.986
	c19.719,2.662,33.514,12.455,41.494,29.272H51.755v20.202H14.374v98.354c0.373,0,0.612,0,0.851,0h48.03v66.292h-277.763v128.954
	l98.471,111.176h46.573v-60.483h89.401v60.483H65.91l125.57-118.679c1.935,1.934,3.752,3.752,5.569,5.324
	c-0.128,0.122-0.244,0.245-0.244,0.367l-27.106,25.526v57.822h48.275V702.336h-21.775v-60.483c0.122,0,0.239,0,0.361,0h22.748
	c1.817,0,3.262-0.606,4.596-1.935s1.935-2.778,1.935-4.596v-6.291c0-1.813-0.606-3.263-1.935-4.597
	c-1.334-1.328-2.778-1.934-4.596-1.934h-22.748c-0.122,0-0.239,0-0.361,0v-13.789c0.122,0,0.239,0,0.361,0h22.748
	c1.817,0,3.262-0.605,4.596-1.934s1.935-2.784,1.935-4.596v-6.292c0-1.812-0.606-3.384-1.935-4.719
	c-1.328-1.334-2.778-1.934-4.596-1.934h-22.748c-0.122,0-0.239,0-0.361,0v-13.666c0.122,0,0.239,0,0.361,0h22.748
	c1.817,0,3.262-0.611,4.596-1.934c1.334-1.334,1.935-2.907,1.935-4.719v-6.285c0-1.817-0.606-3.268-1.935-4.596
	c-1.334-1.334-2.778-1.935-4.596-1.935h-22.748c-0.122,0-0.239,0-0.361,0v-13.665c0.122,0,0.239,0,0.361,0h22.748
	c1.817,0,3.262-0.612,4.596-1.935c1.334-1.334,1.935-2.784,1.935-4.603v-6.285c0-1.817-0.606-3.39-1.935-4.718
	c-1.334-1.328-2.778-1.928-4.596-1.928h-22.748c-0.122,0-0.239,0-0.361,0v-13.673c0.122,0,0.239,0,0.361,0h22.748
	c1.817,0,3.262-0.605,4.596-1.934s1.935-2.778,1.935-4.596v-6.285c0-1.818-0.606-3.269-1.935-4.597
	c-1.334-1.334-2.778-1.934-4.596-1.934h-22.748c-0.122,0-0.239,0-0.361,0v-13.673c0.122,0,0.239,0,0.361,0h22.748
	c1.817,0,3.262-0.605,4.596-1.928c1.334-1.334,1.935-2.906,1.935-4.718v-6.285c0-1.818-0.606-3.269-1.935-4.603
	c-1.334-1.328-2.778-1.928-4.596-1.928h-22.748C196.439,456.759,196.322,456.759,196.199,456.759L196.199,456.759z M113.451,464.261
	c4.112,3.868,6.175,8.464,6.175,13.789c0,5.324-2.063,9.92-6.175,13.666c-4.113,3.751-9.07,5.691-14.878,5.691
	s-10.771-1.935-14.884-5.691c-3.99-3.746-6.047-8.342-6.047-13.666c0-5.325,2.057-9.921,6.047-13.789
	c4.112-3.751,9.069-5.569,14.884-5.569C104.375,458.692,109.338,460.51,113.451,464.261L113.451,464.261z"/>
<path display="none" d="M103.169,478.411c0-2.423-0.729-4.474-2.295-6.291c-1.579-1.689-3.396-2.54-5.453-2.54
	c-2.056,0-3.99,0.851-5.557,2.54c-1.456,1.817-2.179,3.874-2.179,6.291c0,2.54,0.723,4.597,2.179,6.169
	c1.566,1.818,3.501,2.662,5.557,2.662c2.057,0,3.874-0.844,5.453-2.662C102.441,483.008,103.169,480.951,103.169,478.411
	L103.169,478.411z"/>
<g>
	<g>
		<path fill="#53E05D" d="M194.703,469.267v119.74l48.935-186.592l-9.273-9.639c2.724-2.346,5.197-4.451,7.542-6.428l26.566,27.676
			l92.182,25.83v36.959l16.559,37.061l-34.844,124.559l17.182-15.936l56.715-96.387l-10.754-17.422
			c-0.746-1.113-0.986-2.352-0.613-3.709c0.362-1.359,1.109-2.346,2.223-3.092l52.143-30.766c5.681-3.332,10.376-6.307,14.091-8.645
			c9.396,4.072,19.644,6.178,30.889,6.178c19.777,0,36.469-6.428,50.054-19.277c13.584-12.732,20.134-28.178,19.766-46.215
			c-0.495-18.042-7.78-33.492-21.988-46.218c-14.091-12.604-30.899-19.026-50.421-19.148c3.704,2.468,7.162,5.553,10.51,9.268
			c10.381,11.735,15.807,25.705,16.18,42.134c0.367,16.435-4.322,30.527-14.197,42.138c-9.652,11.492-21.504,17.422-35.596,17.551
			c-0.117,0-0.372,0-0.623,0l0.507-0.252L357.323,276.255c2.707-76.242-31.141-126.291-101.695-150.017
			c-53.629-13.467-101.204,0.491-142.848,41.889c-6.3,6.305-12.972,11.74-20.018,16.558c-4.572,3.091-9.262,5.932-14.085,8.404
			c4.823,1.114,9.513,1.982,14.085,2.351c7.537,0.741,14.955,0.612,22.117-0.496l59.315,109.977l13.84-5.068l3.086-101.945
			l9.641,7.542l0,0l41.766,32.498l-43.865,40.034l-1.604,52.271l-10.382,15.694v-0.123L194.703,469.267z M144.288,214.348
			c1.353-1.359,3.085-2.1,5.068-2.1c1.977,0,3.709,0.741,5.068,2.1c1.354,1.359,2.1,3.091,2.1,5.068s-0.746,3.705-2.1,5.063
			c-1.359,1.364-3.091,2.104-5.068,2.104c-1.982,0-3.709-0.741-5.068-2.104c-1.359-1.359-2.1-3.091-2.1-5.063
			C142.188,217.434,142.929,215.702,144.288,214.348L144.288,214.348z M468.407,460.129h-0.116v-0.133L468.407,460.129
			L468.407,460.129z"/>
		<path fill="#3AA50E" d="M446.914,488.668l-30.409,19.035l9.652,15.684c0.489,0.869,0.734,1.732,0.734,2.602
			c0,0.859-0.245,1.727-0.612,2.586l-41.404,70.438l78.475-73.023L446.914,488.668L446.914,488.668z"/>
		<path fill="#3AA50E" d="M243.074,143.519c11.61-4.644,24.589-0.094,38.428,6.677c28.479,13.933,47.201,35.703,52.862,55.296
			c6.922,23.96-0.145,32.075-0.145,32.075L243.074,143.519z"/>
		<path fill="#3AA50E" d="M193.358,448.574l-8.572-6.791l-15.077-11.006l20.977-23.303l-3.544-62.206l-10.382,15.694v-0.122
			l-55.116,82.919l73.059,47.504L193.358,448.574z"/>
	</g>
	<circle fill="none" stroke="#3AA50E" stroke-miterlimit="10" cx="300.238" cy="370.346" r="292.238"/>
</g>
</svg>
